<svg width="17" height="17" viewBox="0 0 17 17" fill="none" xmlns="http://www.w3.org/2000/svg">
<path d="M8.9036 9.75211V9.71163H1.82169C1.5825 9.71152 1.34563 9.75854 1.12462 9.85C0.903607 9.94146 0.702779 10.0756 0.533609 10.2447C0.364439 10.4138 0.230242 10.6145 0.138684 10.8355C0.0471253 11.0565 -2.36446e-08 11.2933 0 11.5325V12.0005C0 12.7227 0.259085 13.4222 0.728676 13.9719C1.99576 15.4568 3.92756 16.1904 6.47469 16.1904C6.76454 16.1904 7.04629 16.1798 7.31914 16.1612C7.29582 16.0368 7.28416 15.9105 7.28433 15.7839V14.9459C7.02443 14.9654 6.75482 14.9751 6.47469 14.9751C4.25789 14.9751 2.66614 14.3711 1.65166 13.1834C1.36957 12.8535 1.21452 12.4337 1.21446 11.9997V11.5325C1.21446 11.3715 1.27843 11.217 1.39231 11.1031C1.50619 10.9893 1.66064 10.9253 1.82169 10.9253H7.45273C7.58295 10.6278 7.7827 10.366 8.03518 10.1619C8.28767 9.95771 8.58549 9.81718 8.9036 9.75211ZM6.47469 0C7.0063 -7.92171e-09 7.53271 0.10471 8.02386 0.308151C8.51501 0.511591 8.96128 0.80978 9.33719 1.18569C9.7131 1.5616 10.0113 2.00787 10.2147 2.49902C10.4182 2.99017 10.5229 3.51658 10.5229 4.0482C10.5229 4.57981 10.4182 5.10623 10.2147 5.59738C10.0113 6.08853 9.7131 6.5348 9.33719 6.91071C8.96128 7.28662 8.51501 7.5848 8.02386 7.78824C7.53271 7.99168 7.0063 8.0964 6.47469 8.0964C5.40104 8.0964 4.37136 7.66989 3.61218 6.91071C2.85299 6.15152 2.42649 5.12185 2.42649 4.0482C2.42649 2.97455 2.85299 1.94487 3.61218 1.18569C4.37136 0.426505 5.40104 0 6.47469 0ZM6.47469 1.21446C6.10256 1.21446 5.73407 1.28776 5.39026 1.43016C5.04646 1.57257 4.73407 1.7813 4.47093 2.04444C4.20779 2.30758 3.99906 2.61997 3.85665 2.96377C3.71425 3.30758 3.64095 3.67607 3.64095 4.0482C3.64095 4.42033 3.71425 4.78882 3.85665 5.13262C3.99906 5.47643 4.20779 5.78882 4.47093 6.05195C4.73407 6.31509 5.04646 6.52382 5.39026 6.66623C5.73407 6.80864 6.10256 6.88194 6.47469 6.88194C7.22624 6.88194 7.94701 6.58338 8.47844 6.05195C9.00987 5.52052 9.30842 4.79975 9.30842 4.0482C9.30842 3.29664 9.00987 2.57587 8.47844 2.04444C7.94701 1.51301 7.22624 1.21446 6.47469 1.21446ZM9.71324 10.5213H9.30842C8.98633 10.5213 8.67743 10.6492 8.44967 10.877C8.22192 11.1047 8.09397 11.4136 8.09397 11.7357V15.7839C8.09397 16.106 8.22192 16.4149 8.44967 16.6427C8.67743 16.8704 8.98633 16.9984 9.30842 16.9984H15.7855C16.1076 16.9984 16.4165 16.8704 16.6443 16.6427C16.872 16.4149 17 16.106 17 15.7839V11.7357C17 11.4136 16.872 11.1047 16.6443 10.877C16.4165 10.6492 16.1076 10.5213 15.7855 10.5213H15.3807V9.50922C15.3807 9.13344 15.2314 8.77305 14.9657 8.50734C14.7 8.24162 14.3396 8.09235 13.9639 8.09235H11.1301C10.7543 8.09235 10.3939 8.24162 10.1282 8.50734C9.86252 8.77305 9.71324 9.13344 9.71324 9.50922V10.5213ZM10.9277 9.50922C10.9277 9.45553 10.949 9.40405 10.987 9.36609C11.0249 9.32813 11.0764 9.30681 11.1301 9.30681H13.9639C14.0175 9.30681 14.069 9.32813 14.107 9.36609C14.1449 9.40405 14.1663 9.45553 14.1663 9.50922V10.5213H10.9277V9.50922Z" fill="white"/>
</svg>
