<svg width="19" height="21" viewBox="0 0 19 21" fill="none" xmlns="http://www.w3.org/2000/svg">
<path d="M13.3885 5.69861L5.37743 13.8444C5.11221 14.1371 4.96971 14.5206 4.97943 14.9154C4.98916 15.3103 5.15035 15.6863 5.42966 15.9656C5.70896 16.2449 6.08497 16.4061 6.47984 16.4158C6.87471 16.4256 7.2582 16.2831 7.55091 16.0178L17.1008 6.33334C17.6312 5.74793 17.9162 4.98095 17.8968 4.1912C17.8773 3.40146 17.5549 2.64944 16.9963 2.09083C16.4377 1.53223 15.6857 1.20983 14.8959 1.19039C14.1062 1.17094 13.3392 1.45594 12.7538 1.98638L3.20395 11.6709C2.33928 12.5355 1.85352 13.7083 1.85352 14.9311C1.85352 16.1539 2.33928 17.3267 3.20395 18.1913C4.06861 19.056 5.24135 19.5418 6.46417 19.5418C7.68699 19.5418 8.85973 19.056 9.7244 18.1913L17.6201 10.3149" stroke="#616161" stroke-width="2.03897" stroke-linecap="round" stroke-linejoin="round"/>
</svg>
