<svg width="18" height="18" viewBox="0 0 18 18" fill="none" xmlns="http://www.w3.org/2000/svg">
<path d="M9.90005 0C9.66134 0 9.43241 0.0948265 9.26362 0.263619C9.09483 0.432411 9 0.661343 9 0.900051V8.10046C9 8.33917 9.09483 8.5681 9.26362 8.73689C9.43241 8.90568 9.66134 9.00051 9.90005 9.00051H17.1005C17.3392 9.00051 17.5681 8.90568 17.7369 8.73689C17.9057 8.5681 18.0005 8.33917 18.0005 8.10046C18.0005 5.95208 17.1471 3.8917 15.6279 2.37257C14.1088 0.853439 12.0484 0 9.90005 0ZM10.8001 7.20041V1.86311C12.1468 2.05717 13.3944 2.68195 14.3565 3.64402C15.3186 4.60609 15.9433 5.85375 16.1374 7.20041H10.8001Z" fill="white"/>
<path d="M16.9379 10.8529C16.8263 10.813 16.7078 10.7955 16.5894 10.8015C16.4709 10.8075 16.3548 10.8369 16.2478 10.8879C16.1407 10.9389 16.0448 11.0106 15.9655 11.0988C15.8863 11.187 15.8252 11.29 15.7859 11.4019C15.3803 12.5485 14.6908 13.5737 13.7819 14.3818C12.873 15.1899 11.7741 15.7546 10.5879 16.0232C9.40176 16.2918 8.16686 16.2556 6.99846 15.9179C5.83006 15.5802 4.76623 14.952 3.90623 14.092C3.04623 13.232 2.41809 12.1682 2.0804 10.9998C1.74271 9.83142 1.70648 8.59652 1.97509 7.41033C2.2437 6.22415 2.80839 5.12532 3.61649 4.21639C4.42459 3.30745 5.44976 2.61801 6.59636 2.2124C6.82193 2.13363 7.00698 1.96847 7.11079 1.75326C7.2146 1.53805 7.22866 1.29042 7.14989 1.06484C7.07111 0.839259 6.90595 0.654211 6.69074 0.550404C6.47553 0.446597 6.2279 0.432533 6.00232 0.511307C4.56858 1.01783 3.28654 1.87935 2.27585 3.01545C1.26517 4.15154 0.558799 5.52518 0.222663 7.00815C-0.113472 8.49112 -0.0684124 10.0351 0.353638 11.4959C0.775688 12.9568 1.56097 14.2869 2.63619 15.3621C3.71141 16.4373 5.04151 17.2226 6.50235 17.6446C7.9632 18.0667 9.50716 18.1118 10.9901 17.7756C12.4731 17.4395 13.8467 16.7331 14.9828 15.7224C16.1189 14.7117 16.9804 13.4297 17.487 11.996C17.5648 11.7715 17.5508 11.5254 17.4479 11.3113C17.3451 11.0972 17.1618 10.9324 16.9379 10.8529Z" fill="white"/>
</svg>
