<svg width="16" height="16" viewBox="0 0 16 16" fill="none" xmlns="http://www.w3.org/2000/svg">
<path fill-rule="evenodd" clip-rule="evenodd" d="M10.0586 7.4944H15.4872C15.7348 7.4944 15.9634 7.72854 15.9634 7.9822C15.9634 8.25537 15.7538 8.47001 15.4872 8.47001H10.0586C9.84907 9.46513 8.97288 10.2066 7.94431 10.2066C6.91574 10.2066 6.03955 9.46513 5.83002 8.47001H0.534784C0.268118 8.47001 0.0585938 8.25537 0.0585938 7.9822C0.0585938 7.70903 0.268118 7.4944 0.534784 7.4944H5.83002C6.03955 6.49928 6.91574 5.75781 7.94431 5.75781C8.97288 5.75781 9.84907 6.49928 10.0586 7.4944ZM6.72526 7.9822C6.72526 8.66513 7.27764 9.23098 7.94431 9.23098C8.61097 9.23098 9.16336 8.66513 9.16336 7.9822C9.16336 7.29928 8.61097 6.73342 7.94431 6.73342C7.27764 6.73342 6.72526 7.29928 6.72526 7.9822Z" fill="#222222"/>
<path fill-rule="evenodd" clip-rule="evenodd" d="M4.36384 2.82938C4.15432 3.8245 3.27813 4.56597 2.24955 4.56597C1.04955 4.56597 0.078125 3.55133 0.078125 2.34158C0.078125 1.13182 1.04955 0.117188 2.24955 0.117188C3.27813 0.117188 4.15432 0.858651 4.36384 1.85377H15.4686C15.7353 1.85377 15.9448 2.06841 15.9448 2.34158C15.9448 2.61475 15.7353 2.82938 15.4686 2.82938H4.36384ZM3.4686 2.34158C3.4686 1.65865 2.91622 1.0928 2.24955 1.0928C1.58289 1.0928 1.03051 1.65865 1.03051 2.34158C1.03051 3.0245 1.58289 3.59036 2.24955 3.59036C2.91622 3.59036 3.4686 3.0245 3.4686 2.34158Z" fill="#222222"/>
<path fill-rule="evenodd" clip-rule="evenodd" d="M11.6586 13.1507C11.8872 12.1751 12.7443 11.4336 13.7729 11.4336C14.9538 11.4336 15.9443 12.4287 15.9443 13.658C15.9443 14.8873 14.9729 15.8824 13.7729 15.8824C12.7443 15.8824 11.8681 15.1214 11.6586 14.1263H0.534784C0.268118 14.1263 0.0585938 13.9116 0.0585938 13.6385C0.0585938 13.3653 0.268118 13.1507 0.534784 13.1507H11.6586ZM12.5538 13.6385C12.5538 14.3214 13.1062 14.8873 13.7729 14.8873C14.4395 14.8873 14.9919 14.3214 14.9919 13.6385C14.9919 12.9555 14.4395 12.3897 13.7729 12.3897C13.1062 12.3897 12.5538 12.9555 12.5538 13.6385Z" fill="#222222"/>
</svg>
