<svg width="18" height="10" viewBox="0 0 18 10" fill="none" xmlns="http://www.w3.org/2000/svg">
<path d="M16.3636 0C15.1773 0 14.5145 1.17818 14.7845 2.05364L11.88 4.96636C11.6345 4.89273 11.2745 4.89273 11.0291 4.96636L8.94273 2.88C9.22091 2.00455 8.55818 0.818182 7.36364 0.818182C6.17727 0.818182 5.50636 1.99636 5.78454 2.88L2.05364 6.60273C1.17818 6.33273 0 6.99545 0 8.18182C0 9.08182 0.736364 9.81818 1.63636 9.81818C2.82273 9.81818 3.48545 8.64 3.21545 7.76454L6.93818 4.03364C7.18364 4.10727 7.54364 4.10727 7.78909 4.03364L9.87545 6.12C9.59727 6.99545 10.26 8.18182 11.4545 8.18182C12.6409 8.18182 13.3118 7.00364 13.0336 6.12L15.9464 3.21545C16.8218 3.48545 18 2.82273 18 1.63636C18 0.736364 17.2636 0 16.3636 0Z" fill="white"/>
</svg>
