<svg width="18" height="19" viewBox="0 0 18 19" fill="none" xmlns="http://www.w3.org/2000/svg">
<path d="M7.72372 0H12.8666V1.71429H7.72372V0ZM16.3114 5.47629L17.5406 4.24714L16.3286 3.03514L15.1003 4.26343C13.7545 3.18498 12.0858 2.58922 10.3613 2.57151C8.63681 2.55379 6.95623 3.11514 5.58857 4.16572L6.80572 5.4C7.82262 4.67774 9.03841 4.28845 10.2857 4.28572L10.2943 4.28657V10.2694L14.5397 14.5191C13.7016 15.3612 12.6324 15.9355 11.4676 16.1693C10.3027 16.4031 9.09472 16.2859 7.99657 15.8325C6.89842 15.3792 5.95956 14.61 5.29895 13.6226C4.63833 12.6351 4.2857 11.4738 4.28572 10.2857H6.85714L3.42857 6.85714L0 10.2857H2.57143C2.57026 11.5184 2.86452 12.7335 3.42957 13.829C3.99461 14.9246 4.81397 15.8689 5.81902 16.5826C6.82407 17.2964 7.98554 17.7589 9.20611 17.9314C10.4267 18.1039 11.6708 17.9814 12.8343 17.5741C13.9978 17.1669 15.0468 16.4867 15.8933 15.5907C16.7399 14.6946 17.3593 13.6087 17.6998 12.424C18.0404 11.2392 18.092 9.99011 17.8504 8.7813C17.6089 7.57249 17.0811 6.43917 16.3114 5.47629Z" fill="white"/>
</svg>
