<svg width="21" height="20" viewBox="0 0 21 20" fill="none" xmlns="http://www.w3.org/2000/svg">
<path d="M1.26553 0.462041L19.6915 9.54124C19.792 9.59076 19.8766 9.66741 19.9358 9.76253C19.995 9.85764 20.0263 9.96742 20.0263 10.0794C20.0263 10.1915 19.995 10.3012 19.9358 10.3964C19.8766 10.4915 19.792 10.5681 19.6915 10.6176L1.26433 19.6968C1.16109 19.7476 1.04546 19.7675 0.931195 19.7544C0.816932 19.7412 0.708855 19.6955 0.619836 19.6227C0.530818 19.5499 0.464609 19.453 0.429095 19.3436C0.393582 19.2342 0.390261 19.1169 0.419527 19.0056L2.24473 12.1116C2.27431 12.0001 2.33545 11.8994 2.4208 11.8217C2.50615 11.7441 2.61209 11.6926 2.72593 11.6736L10.9831 10.2972C11.0323 10.2891 11.0787 10.2688 11.1181 10.2382C11.1575 10.2076 11.1887 10.1677 11.2087 10.122L11.2303 10.05C11.2415 9.98331 11.2298 9.91475 11.1972 9.85549C11.1645 9.79624 11.1127 9.74977 11.0503 9.72364L10.9831 9.70444L2.68033 8.32084C2.56671 8.30164 2.46102 8.25012 2.3759 8.17244C2.29078 8.09477 2.22983 7.99423 2.20033 7.88284L0.419527 1.15444C0.389957 1.04313 0.393048 0.925657 0.428433 0.816054C0.463817 0.706451 0.53 0.609348 0.619077 0.53634C0.708154 0.463332 0.816362 0.417504 0.930779 0.40433C1.0452 0.391155 1.16099 0.411189 1.26433 0.462041H1.26553Z" fill="#05A732"/>
</svg>
